<svg xmlns="http://www.w3.org/2000/svg" viewBox="0 0 64 64" fill="none">
  <rect width="64" height="64" rx="14" fill="#ffffff"/>
  <path d="M32 5C25 10 18 13 10 14v11c0 15 8 26 22 34 14-8 22-19 22-34V14c-8-1-15-4-22-9Z" fill="#ffffff"/>
  <path d="M31 5C24 10 18 13 10 14v11c0 9 3 17 9 24 2-2 4-4 6-5-5-5-7-11-7-19v-6c5-1 9-3 13-5V5Z" fill="#071b33"/>
  <path d="M33 5v9c4 2 8 4 13 5v6c0 8-2 14-7 19 2 2 4 4 6 6 6-7 9-16 9-25V14c-8-1-14-4-21-9Z" fill="#1267bd"/>
  <path d="M23 28c1-2 2-4 3-6 1-1 2-2 4-2h8c2 0 3 1 4 2 1 2 2 4 3 6h2c2 0 3 1 3 2 0 2-1 2-3 3 2 2 3 4 3 7v4c0 2-1 3-3 3H21c-2 0-3-1-3-3v-4c0-3 1-5 3-7-2-1-3-1-3-3 0-1 1-2 3-2h2Z" fill="#071b33"/>
  <path d="M28 29c1-2 2-4 3-5h6c1 1 2 3 3 5H28Z" fill="#ffffff"/>
  <path d="M21 36c0-2 1-3 3-2l4 2c1 0 1 2 0 2l-5 1c-1 0-2-1-2-3ZM47 36c0-2-1-3-3-2l-4 2c-1 0-1 2 0 2l5 1c1 0 2-1 2-3Z" fill="#ffffff"/>
  <path d="M27 43c1-3 2-4 4-4h6c2 0 3 1 4 4H27Z" fill="#ffffff"/>
  <path d="M22 50c8-5 18-7 31-7-10 3-16 7-19 12-4-1-8-3-12-5Z" fill="#1267bd"/>
</svg>
