<svg xmlns="http://www.w3.org/2000/svg" width="640" height="640" viewBox="0 0 640 640" fill="none">
  <rect width="640" height="640" fill="#ffffff"/>
  <path d="M318 78C249 130 185 156 108 164V262C108 365 177 452 318 505C459 452 532 365 532 262V164C455 156 390 130 318 78Z" fill="#ffffff"/>
  <path d="M314 78C244 128 182 154 108 164V262C108 327 135 386 187 431C197 420 208 411 220 404C178 367 156 321 156 262V200C214 190 266 168 314 136V78Z" fill="#071b33"/>
  <path d="M330 78V136C378 168 430 190 488 200V262C488 318 468 362 430 398C435 422 448 442 469 459C512 410 532 345 532 262V164C458 154 397 128 330 78Z" fill="#1267bd"/>
  <path d="M227 262C237 242 246 225 257 211C265 201 276 197 291 196C318 194 354 194 381 196C397 197 408 201 416 211C427 225 436 242 446 262H463C474 262 480 268 480 276C480 286 470 290 458 292C471 306 480 323 480 345V375C480 385 472 392 462 392H215C205 392 197 385 197 375V345C197 323 206 306 219 292C207 290 197 286 197 276C197 268 203 262 214 262H227Z" fill="#071b33"/>
  <path d="M259 273C268 253 276 238 286 225C291 219 298 217 309 216C330 215 361 215 382 216C393 217 400 219 405 225C415 238 423 253 432 273H259Z" fill="#ffffff"/>
  <path d="M225 316C226 300 231 296 245 302L279 315C287 318 286 328 277 331L242 338C229 341 224 332 225 316Z" fill="#ffffff"/>
  <path d="M451 316C450 300 445 296 431 302L397 315C389 318 390 328 399 331L434 338C447 341 452 332 451 316Z" fill="#ffffff"/>
  <path d="M285 363C289 348 296 341 309 341H367C380 341 387 348 391 363L399 382H277L285 363Z" fill="#ffffff"/>
  <path d="M300 358H376L380 368H296L300 358Z" fill="#071b33"/>
  <path d="M206 442C272 405 352 390 470 388C405 411 362 432 340 457C315 486 312 517 335 553C283 536 239 511 206 442Z" fill="#1267bd"/>
  <path d="M291 429C322 418 355 411 391 407" stroke="#ffffff" stroke-width="11" stroke-linecap="round"/>
  <path d="M258 455C272 446 285 439 299 434" stroke="#ffffff" stroke-width="13" stroke-linecap="round"/>
  <path d="M232 491C242 478 252 467 264 458" stroke="#ffffff" stroke-width="14" stroke-linecap="round"/>
  <path d="M207 531C216 518 224 506 232 496" stroke="#ffffff" stroke-width="15" stroke-linecap="round"/>
  <text x="72" y="583" fill="#071b33" font-family="Arial Black, Arial, sans-serif" font-size="58" font-weight="900" letter-spacing="5">SECURE</text>
  <text x="396" y="583" fill="#1267bd" font-family="Arial Black, Arial, sans-serif" font-size="58" font-weight="900" letter-spacing="5">RIDE</text>
  <path d="M73 610H190" stroke="#071b33" stroke-width="5"/>
  <path d="M454 610H570" stroke="#1267bd" stroke-width="5"/>
</svg>
