<svg xmlns="http://www.w3.org/2000/svg" width="320" height="96" viewBox="0 0 320 96" fill="none">
  <rect width="320" height="96" rx="24" fill="#0f172a"/>
  <rect x="18" y="18" width="60" height="60" rx="16" fill="url(#paint0_linear)"/>
  <path d="M48 23L68 31V46C68 60.2 59.6 70.1 48 76C36.4 70.1 28 60.2 28 46V31L48 23Z" fill="white"/>
  <path d="M38 53C39.4 48.4 41.1 45 43.2 42.9H52.8C54.9 45 56.6 48.4 58 53" stroke="#0f766e" stroke-width="4" stroke-linecap="round" stroke-linejoin="round"/>
  <path d="M34.5 53H61.5" stroke="#0f766e" stroke-width="4" stroke-linecap="round"/>
  <path d="M40 58H56" stroke="#0891b2" stroke-width="4" stroke-linecap="round"/>
  <circle cx="40" cy="53" r="2.8" fill="#0f766e"/>
  <circle cx="56" cy="53" r="2.8" fill="#0f766e"/>
  <path d="M44 66C46.8 63.8 49.2 63.8 52 66" stroke="#f59e0b" stroke-width="3" stroke-linecap="round"/>
  <text x="94" y="45" fill="white" font-family="Inter, Arial, sans-serif" font-size="28" font-weight="900">SecureRide</text>
  <text x="96" y="65" fill="#a7f3d0" font-family="Inter, Arial, sans-serif" font-size="13" font-weight="700">Car Insurance Management</text>
  <defs>
    <linearGradient id="paint0_linear" x1="18" y1="18" x2="78" y2="78" gradientUnits="userSpaceOnUse">
      <stop stop-color="#14b8a6"/>
      <stop offset="1" stop-color="#06b6d4"/>
    </linearGradient>
  </defs>
</svg>
